<svg width="1440" height="680" viewBox="0 0 1440 680" fill="none" xmlns="http://www.w3.org/2000/svg">
<g clip-path="url(#clip0_195_1253)">
<rect width="1440" height="680" fill="white"/>
<rect width="1440" height="680" fill="#EAE4D9"/>
<path opacity="0.85" d="M238.94 562H268C270.761 562 273 559.761 273 557V514C273 511.239 270.761 509 268 509H143C140.239 509 138 511.239 138 514V557C138 559.761 140.239 562 143 562H171.881C174.585 562 176.783 559.831 177.437 557.209C179.796 547.75 188.212 535.29 205.386 535.29C224.063 535.29 231.404 548.07 233.466 557.228C234.058 559.854 236.248 562 238.94 562Z" fill="#DA5728"/>
<rect opacity="0.85" width="93.9666" height="95.0309" rx="10" transform="matrix(0.829053 -0.559171 0.537505 0.843261 995.25 201.84)" fill="black"/>
<path opacity="0.85" d="M162.17 190.5C164.094 187.167 168.906 187.167 170.83 190.5L192.914 228.75C194.838 232.083 192.433 236.25 188.584 236.25H144.416C140.567 236.25 138.162 232.083 140.086 228.75L162.17 190.5Z" fill="#FBC95C"/>
<path opacity="0.85" d="M233.17 190.5C235.094 187.167 239.906 187.167 241.83 190.5L263.914 228.75C265.838 232.083 263.433 236.25 259.584 236.25H215.416C211.567 236.25 209.162 232.083 211.086 228.75L233.17 190.5Z" fill="#FBC95C"/>
<path opacity="0.85" d="M304.17 190.5C306.094 187.167 310.906 187.167 312.83 190.5L334.914 228.75C336.838 232.083 334.433 236.25 330.584 236.25H286.416C282.567 236.25 280.162 232.083 282.086 228.75L304.17 190.5Z" fill="#FBC95C"/>
<path opacity="0.85" d="M375.17 190.5C377.094 187.167 381.906 187.167 383.83 190.5L405.914 228.75C407.838 232.083 405.433 236.25 401.584 236.25H357.416C353.567 236.25 351.162 232.083 353.086 228.75L375.17 190.5Z" fill="#FBC95C"/>
<path opacity="0.85" d="M446.17 190.5C448.094 187.167 452.906 187.167 454.83 190.5L476.914 228.75C478.838 232.083 476.433 236.25 472.584 236.25H428.416C424.567 236.25 422.162 232.083 424.086 228.75L446.17 190.5Z" fill="#FBC95C"/>
<path opacity="0.85" d="M1247.74 47.8847C1251.54 40.9887 1261.46 40.9887 1265.26 47.8847L1303.32 116.922C1306.99 123.587 1302.17 131.75 1294.56 131.75H1218.44C1210.83 131.75 1206.01 123.587 1209.68 116.922L1247.74 47.8847Z" fill="#DA5728"/>
<path opacity="0.85" d="M1001.26 56.7317C1005.07 49.8744 1014.93 49.8744 1018.74 56.7317L1057.17 125.893C1060.87 132.558 1056.05 140.75 1048.43 140.75H971.571C963.946 140.75 959.126 132.558 962.83 125.893L1001.26 56.7317Z" fill="#FBC95C"/>
<path opacity="0.85" d="M1193.31 146.288C1197.14 139.545 1206.86 139.545 1210.69 146.288L1249.8 215.057C1253.59 221.724 1248.77 230 1241.1 230H1162.9C1155.23 230 1150.41 221.724 1154.2 215.057L1193.31 146.288Z" fill="#FBC95C"/>
<path opacity="0.85" d="M958.71 115.561C954.884 122.343 945.116 122.343 941.29 115.561L902.987 47.6634C899.227 40.9972 904.043 32.75 911.697 32.75H988.303C995.957 32.75 1000.77 40.9972 997.013 47.6634L958.71 115.561Z" fill="#228F64"/>
<path opacity="0.85" d="M1320.71 115.561C1316.88 122.343 1307.12 122.343 1303.29 115.561L1264.99 47.6634C1261.23 40.9972 1266.04 32.75 1273.7 32.75H1350.3C1357.96 32.75 1362.77 40.9972 1359.01 47.6634L1320.71 115.561Z" fill="#1645BC"/>
<path opacity="0.85" d="M1006.35 431.291L1031.79 391.47C1034.76 386.816 1040.88 385.55 1045.46 388.643L1108.6 431.329C1113.18 434.422 1114.48 440.702 1111.5 445.356L997.185 624.297C994.211 628.951 988.092 630.216 983.516 627.123L920.373 584.438C915.797 581.344 914.499 575.064 917.472 570.41L942.745 530.851C945.659 526.29 951.626 525.015 956.69 526.826C973.155 532.716 999.059 532.743 1014.7 508.262C1031.7 481.656 1020.02 458.376 1008.36 445.899C1004.65 441.937 1003.45 435.835 1006.35 431.291Z" fill="#DA5728"/>
<path opacity="0.85" d="M888.971 639.361L953.573 639.339C963.349 639.336 967.055 626.506 958.89 620.934L914.558 590.682C910.01 587.579 903.9 588.736 900.861 593.275L880.591 623.549C876.118 630.23 880.959 639.363 888.971 639.361Z" fill="#1645BC"/>
<path opacity="0.85" d="M1365.43 639.307L1300.83 639.286C1291.05 639.282 1287.35 626.453 1295.51 620.881L1339.85 590.628C1344.39 587.525 1350.5 588.682 1353.54 593.221L1373.81 623.495C1378.29 630.176 1373.45 639.31 1365.43 639.307Z" fill="#1645BC"/>
<circle opacity="0.85" cx="1130" cy="335" r="48" fill="#DA5728"/>
<rect opacity="0.85" x="139" y="425" width="53" height="54" rx="5" fill="black"/>
<circle opacity="0.85" cx="168" cy="289" r="30" fill="#1645BC"/>
<path opacity="0.85" d="M145.944 347.929L244.228 389.393C249.253 391.513 247.738 399 242.285 399H144C141.239 399 139 396.761 139 394V352.536C139 348.959 142.647 346.539 145.944 347.929Z" fill="#228F64"/>
<path opacity="0.85" d="M301.944 347.929L400.228 389.393C405.253 391.513 403.738 399 398.285 399H300C297.239 399 295 396.761 295 394V352.536C295 348.959 298.647 346.539 301.944 347.929Z" fill="#228F64"/>
<path d="M546.224 232L557.36 218.752L551.792 206.272H556.064L560.048 215.776L567.584 206.272H572.48L561.776 218.944L567.68 232H563.408L559.04 222.016L551.12 232H546.224ZM611.496 201.712H596.952L593.016 212.416C595.464 210.448 598.152 209.632 600.552 209.632C606.12 209.632 609.576 213.424 609.576 218.56C609.576 225.856 602.952 232.384 595.656 232.384C589.752 232.384 586.008 228.208 586.056 222.64L589.32 222.304C589.272 226.24 591.624 229.216 595.944 229.216C601.608 229.216 606.168 223.936 606.168 218.656C606.168 215.248 603.912 212.704 599.832 212.704C596.568 212.704 593.784 214.384 591.624 216.832L588.408 215.824L594.792 198.544H612.12L611.496 201.712Z" fill="black"/>
<path d="M546.224 314L557.36 300.752L551.792 288.272H556.064L560.048 297.776L567.584 288.272H572.48L561.776 300.944L567.68 314H563.408L559.04 304.016L551.12 314H546.224ZM602.952 280.544H606.12L599.64 314H596.376L601.224 288.848H592.872L593.448 285.92H598.92C600.84 285.92 602.136 285.056 602.472 283.232L602.952 280.544Z" fill="black"/>
<path d="M546.224 395L557.36 381.752L551.792 369.272H556.064L560.048 378.776L567.584 369.272H572.48L561.776 381.944L567.68 395H563.408L559.04 385.016L551.12 395H546.224ZM610.44 369.128C610.44 378.728 599.064 386.936 589.944 391.88H607.8L607.176 395H584.04L584.616 391.88C593.448 386.936 607.128 378.872 607.128 369.512C607.128 366.2 605.064 364.376 601.512 364.376C596.328 364.376 593.496 368.12 592.488 372.968L589.32 372.488C590.568 365.96 595.08 361.208 601.8 361.208C606.984 361.208 610.44 364.136 610.44 369.128Z" fill="black"/>
<path d="M546.224 476L557.36 462.752L551.792 450.272H556.064L560.048 459.776L567.584 450.272H572.48L561.776 462.944L567.68 476H563.408L559.04 466.016L551.12 476H546.224ZM602.952 442.544H606.12L599.64 476H596.376L601.224 450.848H592.872L593.448 447.92H598.92C600.84 447.92 602.136 447.056 602.472 445.232L602.952 442.544Z" fill="black"/>
<path d="M546.224 558L557.36 544.752L551.792 532.272H556.064L560.048 541.776L567.584 532.272H572.48L561.776 544.944L567.68 558H563.408L559.04 548.016L551.12 558H546.224ZM602.952 524.544H606.12L599.64 558H596.376L601.224 532.848H592.872L593.448 529.92H598.92C600.84 529.92 602.136 529.056 602.472 527.232L602.952 524.544Z" fill="black"/>
<g opacity="0.85">
<path d="M637.594 220.5H662V241.5H637.594V220.5Z" fill="#DE45A6"/>
<path d="M53 241.5H662V246H53V241.5Z" fill="#DE45A6"/>
<path d="M53 244.5V219H56.7909V230.135H69.5475V219H73.3194V244.5H69.5475V233.347H56.7909V244.5H53Z" fill="#DE45A6"/>
<path d="M80.181 244.5V219H83.972V233.239L98.0174 219H103.002L92.6343 229.214L103.438 244.5H98.7946L90.0375 231.669L83.972 237.642V244.5H80.181Z" fill="#DE45A6"/>
</g>
<g opacity="0.85">
<path d="M637.594 301.5H662V322.5H637.594V301.5Z" fill="#DE45A6"/>
<path d="M53 322.5H662V327H53V322.5Z" fill="#DE45A6"/>
<path d="M53 325.5V300H56.7909V311.135H69.5475V300H73.3194V325.5H69.5475V314.347H56.7909V325.5H53Z" fill="#DE45A6"/>
<path d="M80.181 325.5V300H83.972V314.239L98.0174 300H103.002L92.6343 310.214L103.438 325.5H98.7946L90.0375 312.669L83.972 318.642V325.5H80.181Z" fill="#DE45A6"/>
</g>
<g opacity="0.85">
<path d="M637.594 382.5H662V403.5H637.594V382.5Z" fill="#DE45A6"/>
<path d="M53 403.5H662V408H53V403.5Z" fill="#DE45A6"/>
<path d="M53 406.5V381H56.7909V392.135H69.5475V381H73.3194V406.5H69.5475V395.347H56.7909V406.5H53Z" fill="#DE45A6"/>
<path d="M80.181 406.5V381H83.972V395.239L98.0174 381H103.002L92.6343 391.214L103.438 406.5H98.7946L90.0375 393.669L83.972 399.642V406.5H80.181Z" fill="#DE45A6"/>
</g>
<g opacity="0.85">
<path d="M637.594 463.5H662V484.5H637.594V463.5Z" fill="#DE45A6"/>
<path d="M53 484.5H662V489H53V484.5Z" fill="#DE45A6"/>
<path d="M53 487.5V462H56.7909V473.135H69.5475V462H73.3194V487.5H69.5475V476.347H56.7909V487.5H53Z" fill="#DE45A6"/>
<path d="M80.181 487.5V462H83.972V476.239L98.0174 462H103.002L92.6343 472.214L103.438 487.5H98.7946L90.0375 474.669L83.972 480.642V487.5H80.181Z" fill="#DE45A6"/>
</g>
<g opacity="0.85">
<path d="M637.594 544.5H662V565.5H637.594V544.5Z" fill="#DE45A6"/>
<path d="M53 565.5H662V570H53V565.5Z" fill="#DE45A6"/>
<path d="M53 568.5V543H56.7909V554.135H69.5475V543H73.3194V568.5H69.5475V557.347H56.7909V568.5H53Z" fill="#DE45A6"/>
<path d="M80.181 568.5V543H83.972V557.239L98.0174 543H103.002L92.6343 553.214L103.438 568.5H98.7946L90.0375 555.669L83.972 561.642V568.5H80.181Z" fill="#DE45A6"/>
</g>
<circle cx="1130" cy="335" r="15" fill="#D9D9D9"/>
<path opacity="0.85" d="M980.972 144.74L1043.13 144.761C1052.91 144.764 1056.61 157.594 1048.45 163.166L1005.79 192.274C1001.24 195.377 995.134 194.22 992.095 189.681L972.591 160.552C968.118 153.871 972.959 144.737 980.972 144.74Z" fill="#1645BC"/>
<path opacity="0.85" d="M1338.99 566.349L1185.02 460.812C1176.09 454.691 1165.29 465.666 1171.2 474.861L1265.19 621.172C1268.17 625.819 1274.3 627.068 1278.86 623.964L1338.85 583.19C1344.75 579.177 1344.83 570.347 1338.99 566.349Z" fill="#228F64"/>
<path opacity="0.85" d="M1156.46 441.237L1310.43 546.774C1319.37 552.895 1330.16 541.92 1324.26 532.725L1230.26 386.414C1227.28 381.767 1221.16 380.518 1216.59 383.622L1156.61 424.396C1150.7 428.408 1150.63 437.239 1156.46 441.237Z" fill="black"/>
<path opacity="0.85" d="M1182.04 458.606L1152.23 438.303C1150.45 437.089 1148.3 439.272 1149.46 441.109L1172.8 477.774C1173.67 479.138 1175.69 478.921 1176.29 477.399L1182.76 461.038C1183.11 460.148 1182.81 459.134 1182.04 458.606Z" fill="#228F64"/>
<path d="M1307.63 545.027L1342.98 568.718C1344.77 569.918 1346.9 567.724 1345.72 565.895L1323.49 531.398C1322.85 530.409 1321.51 530.203 1320.6 530.953L1307.49 541.759C1306.44 542.624 1306.51 544.279 1307.63 545.027Z" fill="#252525"/>
<path d="M819.609 48.0498C825.993 48.6113 831 53.9703 831 60.5C831 67.0297 825.993 72.3898 819.609 72.9512V90.8184H679V72.9883C685.672 72.7258 691 67.2361 691 60.5C691 53.7639 685.672 48.2732 679 48.0107V32H819.609V48.0498ZM682 46.7734H709.946V76.9082H682V85.8184H746V76.9082H718.009V46.7734H746V37.8184H682V46.7734ZM749 46.7734H776.946V76.9082H749V85.8184H813V76.9082H785.009V46.7734H813V37.8184H749V46.7734Z" fill="#E273B6"/>
<path d="M1540.61 48.0498C1546.99 48.6113 1552 53.9703 1552 60.5C1552 67.0297 1546.99 72.3898 1540.61 72.9512V90.8184H1400V72.9883C1406.67 72.7258 1412 67.2361 1412 60.5C1412 53.7639 1406.67 48.2732 1400 48.0107V32H1540.61V48.0498ZM1403 46.7734H1430.95V76.9082H1403V85.8184H1467V76.9082H1439.01V46.7734H1467V37.8184H1403V46.7734ZM1470 46.7734H1497.95V76.9082H1470V85.8184H1534V76.9082H1506.01V46.7734H1534V37.8184H1470V46.7734Z" fill="#E273B6"/>
</g>
<defs>
<clipPath id="clip0_195_1253">
<rect width="1440" height="680" fill="white"/>
</clipPath>
</defs>
</svg>
