<svg width="1440" height="60" viewBox="0 0 1440 60" fill="none" xmlns="http://www.w3.org/2000/svg">
<path d="M588.429 16.6045C582.092 16.7629 577 22.3807 577 29.2871C577 36.1936 582.092 41.8103 588.429 41.9688V58.8184H866.038V41.9609C865.873 41.9685 865.706 41.9736 865.539 41.9736C859.075 41.9736 853.835 36.2933 853.835 29.2871C853.835 22.281 859.075 16.6016 865.539 16.6016C865.706 16.6016 865.873 16.6058 866.038 16.6133V0H588.429V16.6045Z" fill="#E273B6"/>
<path d="M796.038 53L860.038 53L860.038 44.0448L832.092 44.0448L832.092 13.9104L860.038 13.9104L860.038 5L796.038 5L796.038 13.9104L824.03 13.9104L824.03 44.0448L796.038 44.0448L796.038 53Z" fill="#ECE2D9"/>
<path d="M729.038 53L793.038 53L793.038 44.0448L765.092 44.0448L765.092 13.9104L793.038 13.9104L793.038 5L729.038 5L729.038 13.9104L757.03 13.9104L757.03 44.0448L729.038 44.0448L729.038 53Z" fill="#ECE2D9"/>
<path d="M662.038 53L726.038 53L726.038 44.0448L698.092 44.0448L698.092 13.9104L726.038 13.9104L726.038 5L662.038 5L662.038 13.9104L690.03 13.9104L690.03 44.0448L662.038 44.0448L662.038 53Z" fill="#ECE2D9"/>
<path d="M595.038 53L659.038 53L659.038 44.0448L631.092 44.0448L631.092 13.9104L659.038 13.9104L659.038 5L595.038 5L595.038 13.9104L623.03 13.9104L623.03 44.0448L595.038 44.0448L595.038 53Z" fill="#ECE2D9"/>
<path d="M894.429 16.6045C888.092 16.7629 883 22.3807 883 29.2871C883 36.1936 888.092 41.8103 894.429 41.9688V58.8184H1172.04V41.9609C1171.87 41.9685 1171.71 41.9736 1171.54 41.9736C1165.08 41.9736 1159.83 36.2933 1159.83 29.2871C1159.84 22.281 1165.08 16.6016 1171.54 16.6016C1171.71 16.6016 1171.87 16.6058 1172.04 16.6133V0H894.429V16.6045Z" fill="#E273B6"/>
<path d="M1102.04 53L1166.04 53L1166.04 44.0448L1138.09 44.0448L1138.09 13.9104L1166.04 13.9104L1166.04 5L1102.04 5L1102.04 13.9104L1130.03 13.9104L1130.03 44.0448L1102.04 44.0448L1102.04 53Z" fill="#ECE2D9"/>
<path d="M1035.04 53L1099.04 53L1099.04 44.0448L1071.09 44.0448L1071.09 13.9104L1099.04 13.9104L1099.04 5L1035.04 5L1035.04 13.9104L1063.03 13.9104L1063.03 44.0448L1035.04 44.0448L1035.04 53Z" fill="#ECE2D9"/>
<path d="M968.038 53L1032.04 53L1032.04 44.0448L1004.09 44.0448L1004.09 13.9104L1032.04 13.9104L1032.04 5L968.038 5L968.038 13.9104L996.03 13.9104L996.03 44.0448L968.038 44.0448L968.038 53Z" fill="#ECE2D9"/>
<path d="M901.038 53L965.038 53L965.038 44.0448L937.092 44.0448L937.092 13.9104L965.038 13.9104L965.038 5L901.038 5L901.038 13.9104L929.03 13.9104L929.03 44.0448L901.038 44.0448L901.038 53Z" fill="#ECE2D9"/>
<path d="M-62.5713 17.6045C-68.9078 17.7629 -73.9999 23.3807 -74 30.2871C-74 37.1936 -68.9079 42.8103 -62.5713 42.9688V59.8184H215.038V42.9609C214.873 42.9685 214.706 42.9736 214.539 42.9736C208.075 42.9736 202.835 37.2933 202.835 30.2871C202.835 23.281 208.075 17.6016 214.539 17.6016C214.706 17.6016 214.873 17.6058 215.038 17.6133V1H-62.5713V17.6045Z" fill="#E273B6"/>
<path d="M145.038 54L209.038 54L209.038 45.0448L181.092 45.0448L181.092 14.9104L209.038 14.9104L209.038 6L145.038 6L145.038 14.9104L173.03 14.9104L173.03 45.0448L145.038 45.0448L145.038 54Z" fill="#ECE2D9"/>
<path d="M78 54L142 54L142 45.0448L114.054 45.0448L114.054 14.9104L142 14.9104L142 6L78 6L78 14.9104L105.992 14.9104L105.992 45.0448L78 45.0448L78 54Z" fill="#ECE2D9"/>
<path d="M11.0381 54L75.0381 54L75.0381 45.0448L47.0919 45.0448L47.0919 14.9104L75.0381 14.9104L75.0381 6L11.0381 6L11.0381 14.9104L39.0296 14.9104L39.0296 45.0448L11.0381 45.0448L11.0381 54Z" fill="#ECE2D9"/>
<path d="M-55.9619 54L8.03809 54L8.03809 45.0448L-19.9081 45.0448L-19.9081 14.9104L8.03809 14.9104L8.03809 6L-55.9619 6L-55.9619 14.9104L-27.9704 14.9104L-27.9704 45.0448L-55.9619 45.0448L-55.9619 54Z" fill="#ECE2D9"/>
<path d="M1184.43 16.6045C1178.09 16.7629 1173 22.3807 1173 29.2871C1173 36.1936 1178.09 41.8103 1184.43 41.9688V58.8184H1462.04V41.9609C1461.87 41.9685 1461.71 41.9736 1461.54 41.9736C1455.08 41.9736 1449.83 36.2933 1449.83 29.2871C1449.84 22.281 1455.08 16.6016 1461.54 16.6016C1461.71 16.6016 1461.87 16.6058 1462.04 16.6133V0H1184.43V16.6045Z" fill="#E273B6"/>
<path d="M1392.04 53L1456.04 53L1456.04 44.0448L1428.09 44.0448L1428.09 13.9104L1456.04 13.9104L1456.04 5L1392.04 5L1392.04 13.9104L1420.03 13.9104L1420.03 44.0448L1392.04 44.0448L1392.04 53Z" fill="#ECE2D9"/>
<path d="M1325.04 53L1389.04 53L1389.04 44.0448L1361.09 44.0448L1361.09 13.9104L1389.04 13.9104L1389.04 5L1325.04 5L1325.04 13.9104L1353.03 13.9104L1353.03 44.0448L1325.04 44.0448L1325.04 53Z" fill="#ECE2D9"/>
<path d="M1258.04 53L1322.04 53L1322.04 44.0448L1294.09 44.0448L1294.09 13.9104L1322.04 13.9104L1322.04 5L1258.04 5L1258.04 13.9104L1286.03 13.9104L1286.03 44.0448L1258.04 44.0448L1258.04 53Z" fill="#ECE2D9"/>
<path d="M1191.04 53L1255.04 53L1255.04 44.0448L1227.09 44.0448L1227.09 13.9104L1255.04 13.9104L1255.04 5L1191.04 5L1191.04 13.9104L1219.03 13.9104L1219.03 44.0448L1191.04 44.0448L1191.04 53Z" fill="#ECE2D9"/>
</svg>
