<svg width="513" height="133" viewBox="0 0 513 133" fill="none" xmlns="http://www.w3.org/2000/svg">
<g opacity="0.85">
<path d="M491.962 109.389H512.5V128.833H491.962V109.389Z" fill="#2047BC"/>
<path d="M0 128.833H512.5V133H0V128.833Z" fill="#2047BC"/>
<path d="M0 131.611V108H3.19024V118.31H13.9254V108H17.0997V131.611H13.9254V121.284H3.19024V131.611H0Z" fill="#2047BC"/>
<path d="M22.874 131.611V108H26.0643V121.184L37.8841 108H42.0793L33.354 117.458L42.4462 131.611H38.5381L31.1687 119.73L26.0643 125.261V131.611H22.874Z" fill="#2047BC"/>
</g>
<g opacity="0.85">
<path d="M491.962 1.38889H512.5V20.8333H491.962V1.38889Z" fill="#2047BC"/>
<path d="M0 20.8333H512.5V25H0V20.8333Z" fill="#2047BC"/>
<path d="M0 23.6111V0H3.19024V10.31H13.9254V0H17.0997V23.6111H13.9254V13.2844H3.19024V23.6111H0Z" fill="#2047BC"/>
<path d="M22.874 23.6111V0H26.0643V13.1841L37.8841 0H42.0793L33.354 9.45781L42.4462 23.6111H38.5381L31.1687 11.7304L26.0643 17.2613V23.6111H22.874Z" fill="#2047BC"/>
</g>
<g opacity="0.85">
<path d="M491.962 55.3889H512.5V74.8333H491.962V55.3889Z" fill="#2047BC"/>
<path d="M0 74.8333H512.5V79H0V74.8333Z" fill="#2047BC"/>
<path d="M0 77.6111V54H3.19024V64.31H13.9254V54H17.0997V77.6111H13.9254V67.2844H3.19024V77.6111H0Z" fill="#2047BC"/>
<path d="M22.874 77.6111V54H26.0643V67.1841L37.8841 54H42.0793L33.354 63.4578L42.4462 77.6111H38.5381L31.1687 65.7304L26.0643 71.2613V77.6111H22.874Z" fill="#2047BC"/>
</g>
</svg>
