<svg width="426" height="460" viewBox="0 0 426 460" fill="none" xmlns="http://www.w3.org/2000/svg">
<path d="M423.465 89.1056C424.281 92.3252 425.796 95.5148 425.796 98.7344C425.971 210.94 425.971 323.115 426 435.321C426 436.765 425.563 438.21 425.155 440.828C421.104 441.158 416.937 441.64 412.741 441.821C384.708 443.024 356.646 444.047 328.613 445.371C290.469 447.207 252.324 449.313 214.209 451.269C174.608 453.315 135.006 455.301 95.434 457.437C90.6842 457.708 85.9635 458.761 79.5818 459.724C51.5489 429.032 27.1294 394.308 0.0581594 361.57C0.0581594 354.349 0.0581594 347.368 0.0581594 340.387C0.0581594 235.704 0 131.021 0 26.3379C0 20.2898 0.0873849 14.2718 0.145665 8.22369C5.44917 7.92279 2.97215 12.4363 4.22518 14.4825C7.16834 19.2367 12.5885 22.2457 16.1436 26.699C36.0463 51.8241 55.7159 77.1899 75.2981 102.255C105.808 99.8778 135.181 102.766 164.729 99.3963C195.793 95.8758 227.381 99.2761 258.765 96.1467C282.66 93.7395 306.875 95.2741 330.974 93.1076C361.688 90.3393 392.664 90.3092 423.523 89.1056H423.465Z" fill="#1645BC"/>
<path d="M424 90.5416C393.095 91.7408 362.103 91.7708 331.315 94.5291C307.151 96.7177 282.929 95.1887 258.999 97.5571C227.54 100.705 195.935 97.2872 164.826 100.795C135.234 104.123 105.818 101.275 75.2629 103.643C55.652 78.6692 35.9826 53.3956 16.0214 28.3618C12.4903 23.9246 7.03318 20.9266 4.08569 16.1896C2.83082 14.1809 5.31131 9.65379 0 9.9536C3.50196 9.05418 7.00403 7.40526 10.506 7.34529C39.1637 6.98553 67.8505 7.19539 96.5083 6.68572C134.271 5.99616 172.063 4.88687 209.826 3.77759C249.048 2.60835 288.241 1.25919 327.113 0C346.081 17.3288 364.058 33.8782 382.181 50.2776C394.088 61.0706 406.257 71.5639 418.105 82.3869C420.498 84.5755 422.045 87.7833 424 90.5116V90.5416Z" fill="#889DD4"/>
<path opacity="0.85" d="M0.0859222 8.20935L74 102.22V459.724L0 361.561L0.0859222 8.20935Z" fill="#35529C"/>
<path opacity="0.85" d="M228.635 421.258L227.231 354.018C224.258 354.57 220.811 354.97 217.514 355.042C172.768 356.026 141.214 319.274 140.25 273.097C139.29 227.082 169.278 188.816 214.024 187.832C217.324 187.922 220.625 188.011 223.778 188.59L222.402 122.646L248.151 122.08L249.527 188.025C252.496 187.311 255.944 186.911 259.241 186.838C303.987 185.855 335.544 222.769 336.504 268.784C337.468 314.961 307.477 353.065 262.731 354.048C259.434 354.121 255.973 353.873 252.98 353.452L254.383 420.693L228.635 421.258ZM217.03 331.873C220.641 331.793 223.781 331.724 226.751 331.011L224.262 211.76C221.269 211.34 218.122 211.085 214.511 211.164C180.441 211.913 168.005 240.716 168.668 272.472C169.331 304.229 182.961 332.621 217.03 331.873ZM262.247 330.879C296.317 330.13 308.75 301.165 308.087 269.408C307.424 237.651 293.797 209.421 259.728 210.17C256.117 210.249 252.983 210.643 250.011 211.194L252.499 330.445C255.496 331.027 258.636 330.958 262.247 330.879Z" fill="black"/>
</svg>
