<svg width="335" height="395" viewBox="0 0 335 395" fill="none" xmlns="http://www.w3.org/2000/svg">
<path d="M289.818 394.94C261.357 395.65 24.5702 383.88 7.68822 382.885C4.77035 382.719 1.94524 381.322 0 380.754C0 352.453 0 325.123 0 297.793C0.0463153 236.691 0.115709 175.566 0.20834 114.464C0.20834 110.13 0.439973 105.796 0.555761 101.486C14.2883 102.126 27.9745 100.87 41.8227 103.357C55.6479 105.844 70.0055 105.299 84.1317 106.128C96.7063 106.862 109.304 107.738 121.879 108.449C137.163 109.301 152.447 109.988 167.708 110.888C179.148 111.551 190.541 112.546 201.981 113.162C219.187 114.085 236.393 114.701 253.599 115.672C263.117 116.193 272.589 117.235 282.083 117.875C285.418 118.111 288.799 117.922 291.439 117.922C294.403 113.114 296.603 109.538 298.803 105.938C298.873 113.043 298.989 120.148 298.965 127.229C298.965 129.148 299.243 132.108 298.224 132.818C292.389 136.797 294.496 142.67 294.496 147.833C294.38 209.788 294.334 271.742 294.496 333.696C294.496 341.819 295.978 349.942 296.557 358.089C296.789 361.192 296.673 364.389 296.233 367.468C295.121 375.259 293.755 383.004 292.481 390.772V390.629C291.578 392.074 290.675 393.519 289.772 394.94H289.818Z" fill="#3F8B70"/>
<path d="M299.992 106.608C297.794 110.284 295.596 113.984 292.635 118.926C289.997 118.926 286.642 119.121 283.287 118.878C273.8 118.196 264.314 117.149 254.827 116.613C237.636 115.615 220.444 114.982 203.253 114.033C191.823 113.4 180.439 112.377 169.009 111.696C153.738 110.771 138.467 110.065 123.219 109.188C110.655 108.458 98.0683 107.581 85.5044 106.802C71.3904 105.95 57.0681 106.51 43.2317 103.954C29.3952 101.398 15.7207 102.688 2 102.031C5.47068 95.214 8.59424 88.1783 12.5045 81.6538C18.2196 72.1348 24.837 63.2245 30.4595 53.6811C38.7198 39.6096 46.4015 25.1729 54.4303 10.9553C56.5359 7.20618 58.9885 3.65178 61.2792 0C74.2827 0 306.656 14.6315 328.868 14.4854C332.015 14.4854 335 14.3637 335 14.3637C333.542 16.6034 331.599 23.4931 330.627 25.9276C321.973 47.5461 313.435 69.189 305.013 90.8806C303.023 95.9931 301.658 101.373 299.992 106.632V106.608Z" fill="#90C7AC"/>
<path d="M292.576 117.158C294.27 111.976 302.406 94.4632 304.429 89.4253C312.989 68.026 333.424 16.2071 334.906 14C334.977 23.9799 335 38.7339 335 48.7139C335 133.759 334.882 218.805 335 303.85C335 310.855 333.613 317.02 330.485 323.234C319.926 344.057 293.14 392.529 291 395C292.293 387.131 292.623 124.355 292.553 117.158H292.576Z" fill="#3D7B67"/>
<path opacity="0.85" d="M97.9039 349.196L97.9042 141.386L121.239 142.203L122.256 257.435L139.698 258.332L174.754 205.765L203.678 207.253L162.711 264.243C173.321 264.789 180.756 278.911 184.165 289.133L204.828 354.908L177.212 353.488L162.047 299.815C158.239 286.027 152.345 278.78 140.281 278.16L121.24 277.18L121.24 351.03L97.9039 349.196Z" fill="black"/>
</svg>
