<svg width="207" height="242" viewBox="0 0 207 242" fill="none" xmlns="http://www.w3.org/2000/svg">
<path d="M173 235.828C170.496 240.739 168.925 241.572 164.482 240.987C154.069 239.628 143.627 238.444 133.199 237.085C125.799 236.106 118.413 234.951 111.027 233.87C105.721 233.081 100.444 232.219 95.1379 231.473C82.2057 229.661 69.2736 227.878 56.3272 226.11C47.7671 224.941 39.2211 223.816 30.6468 222.734C20.7142 221.477 10.7816 220.308 0.382051 219.037C0.25471 217.97 0 216.845 0 215.705C0 161.252 0.0282669 106.8 0.056565 52.3478C0.056565 51.1348 0.226357 49.9365 0.3254 48.7235C2.09403 48.212 3.84858 47.7151 5.6172 47.2036C7.27264 48.1974 8.77242 49.7173 10.4703 49.995C15.2668 50.7987 20.1482 51.1056 25.0013 51.5879C30.3213 52.114 35.6414 52.5086 40.9472 53.1516C52.2099 54.5107 63.4442 56.0744 74.7068 57.4189C84.1583 58.5442 93.6381 59.3334 103.09 60.4733C113.885 61.7886 124.667 63.2792 135.434 64.7845C141.377 65.6175 147.291 66.7866 153.234 67.5319C158.766 68.2188 164.341 68.5549 169.887 69.0518C169.449 75.5258 168.642 81.9999 168.628 88.4739C168.515 130.095 168.501 171.701 168.67 213.323C168.685 217.005 166.576 221.112 169.859 224.59C170.298 225.058 170.099 226.578 169.746 227.396C168.359 230.626 166.803 233.768 164.878 237.831C168.147 237.027 170.581 236.428 173 235.828Z" fill="#F7CF7A"/>
<path opacity="0.85" d="M170.213 68.7533C164.646 68.2561 159.049 67.9343 153.496 67.2322C147.516 66.4863 141.593 65.3162 135.628 64.4825C124.819 62.976 113.996 61.4841 103.159 60.1677C93.6854 59.0269 84.155 58.2224 74.6671 57.1108C63.3612 55.7798 52.0838 54.2148 40.7779 52.8399C35.4516 52.1964 30.0969 51.8015 24.7707 51.2749C19.8989 50.7923 15.013 50.4851 10.1839 49.6807C8.47948 49.4028 6.98813 47.8816 5.31213 46.887C3.55092 47.399 1.77542 47.8963 0 48.4082C0.0994236 47.7062 -0.0709718 46.6969 0.312519 46.3459C13.6211 34.6887 27.029 23.1339 40.3376 11.4622C44.4282 7.87873 48.2915 4.00279 52.3253 0.199954C62.6795 -0.516734 72.8918 0.78498 83.0614 2.64252C84.4391 2.89117 85.8736 2.78881 87.2797 2.9497C95.6313 3.87116 103.983 4.83648 112.334 5.72869C113.968 5.9042 115.644 5.90421 117.291 5.87496C124.379 5.69944 131.339 6.43075 138.199 8.33216C139.974 8.82946 141.934 8.59545 143.809 8.80022C152.161 9.70705 160.512 10.6723 168.864 11.5499C170.98 11.7693 173.125 11.5938 175.227 11.7839C185.24 12.7054 195.24 13.6561 205.239 14.6946C205.878 14.7677 206.418 15.7623 207 16.3327C206.29 16.9178 205.395 17.3858 204.884 18.1172C200.495 24.4357 196.177 30.8274 191.831 37.1752C184.63 47.7061 177.414 58.2224 170.213 68.7533Z" fill="#FFEB9D"/>
<path opacity="0.85" d="M169.999 69.4569C177.159 59.0081 184.333 48.5737 191.492 38.1249C195.814 31.812 200.107 25.4846 204.47 19.2153C204.979 18.4897 205.869 18.0253 206.575 17.4448C206.673 23.9463 206.871 30.4478 206.871 36.9639C206.857 85.6962 206.518 134.414 206.998 183.132C207.083 191.912 204.047 198.094 198.921 204.175C192.086 212.287 185.434 220.574 178.67 228.744C176.876 230.906 174.97 232.953 173.106 235.057C170.677 235.652 168.248 236.247 165 237.045C166.921 232.996 168.474 229.876 169.858 226.683C170.211 225.871 170.423 224.361 169.971 223.897C166.709 220.443 168.799 216.365 168.785 212.708C168.615 171.377 168.629 130.06 168.742 88.7292C168.756 82.3003 169.561 75.8714 169.999 69.4424V69.4569Z" fill="#C49A32"/>
<path opacity="0.85" d="M73.9072 185.786C55.2032 186.098 40.4528 171.683 40.0976 149.221L40.0973 96.9587L52.1113 98.095L52.5322 124.716C56.5557 119.074 62.9771 116.735 73.4577 116.561C92.7261 116.24 108.473 127.793 108.833 150.588C109.193 173.383 93.1755 185.466 73.9072 185.786ZM121.653 190.044L120.339 106.936L133.239 108.286L134.553 191.394L121.653 190.044ZM73.7191 173.89C86.6184 173.675 94.4446 163.726 94.2407 150.831C94.0434 138.352 85.9002 128.253 73.0009 128.468C60.9078 128.669 53.569 134.185 52.865 145.763L52.9413 150.588C54.0136 162.304 61.5453 174.093 73.7191 173.89Z" fill="black"/>
</svg>
