<svg width="207" height="243" viewBox="0 0 207 243" fill="none" xmlns="http://www.w3.org/2000/svg">
<path opacity="0.85" d="M206.658 48.2447C206.772 51.1818 206.886 54.1335 207 57.0706C206.872 59.7434 206.63 62.4161 206.63 65.0742C206.616 106.311 206.63 147.562 206.63 188.799C206.63 198.8 206.744 208.8 206.815 218.801L206.658 218.992C205.662 219.374 204.666 219.756 203.669 220.138C194.105 221.239 184.526 222.238 174.976 223.442C164.756 224.734 154.551 226.188 144.332 227.583C132.49 229.213 120.648 230.873 108.806 232.488C99.0563 233.81 89.2924 235.087 79.5427 236.394C70.704 237.569 61.8652 238.7 53.0407 239.963C48.6712 240.594 44.3585 241.578 39.9748 242.166C39.0496 242.283 37.9963 241.358 37 240.917C37.0569 238.23 37.1565 235.557 37.1565 232.87C37.1565 178.211 37.1565 123.566 37.1565 68.9071C40.6152 68.4225 44.0596 67.8497 47.5325 67.4973C53.5816 66.8658 59.6734 66.5868 65.7082 65.7791C74.9312 64.5602 84.0974 62.8567 93.3204 61.6672C102.814 60.4483 112.364 59.6406 121.872 58.5538C134.155 57.144 146.424 55.6461 158.693 54.1923C163.333 53.6489 167.987 53.179 172.613 52.5916C183.942 51.1671 195.272 49.6838 206.616 48.23L206.658 48.2447Z" fill="#DA5728"/>
<path opacity="0.85" d="M207 48.1463C195.711 49.5952 184.422 51.0734 173.119 52.4931C168.496 53.0785 163.873 53.5469 159.249 54.0884C147.024 55.5373 134.8 57.0302 122.561 58.4352C113.087 59.5182 103.571 60.3232 94.1115 61.538C84.9216 62.7234 75.7884 64.4212 66.5985 65.6359C60.5854 66.4263 54.5155 66.719 48.4881 67.3483C45.0277 67.6996 39.2841 68.285 35.8378 68.7533C30.8883 61.9185 27.2793 55.695 22.5 48.743C15.4374 38.4542 9.44522 27.4807 2.42515 17.1626C2.01387 16.5479 0.822554 16.504 0 16.182C2.39675 13.5475 5.54522 13.167 8.76453 13.2256C17.8977 13.3866 26.8465 11.9815 35.8378 10.4594C42.4892 9.33247 49.3107 9.03976 56.0755 8.86413C64.4854 8.65923 72.7535 7.56155 81.0215 6.03944C86.0561 5.1174 91.2042 4.83932 96.3097 4.44415C104.237 3.84409 112.179 3.58065 120.093 2.81959C126.787 2.17562 133.41 0.799869 140.104 0.214442C144.996 -0.209993 149.96 0.126632 154.782 0.126632C164.213 8.68851 173.474 17.2065 182.862 25.5634C190.464 32.3251 198.25 38.8819 205.88 45.5997C206.489 46.1412 206.631 47.2535 206.986 48.1024L207 48.1463Z" fill="#EA9E83"/>
<path opacity="0.85" d="M0.095959 16.4187C0.891659 16.7271 2.04408 16.7858 2.44193 17.4025C9.23282 27.7691 15.8316 38.2678 22.6637 48.5756C27.287 55.5502 32.2121 62.3047 37 69.1619C37 123.814 37 178.451 37 233.103C37 235.79 36.904 238.463 36.8491 241.15C31.0597 234.072 25.1468 227.112 19.5221 219.888C13.0193 211.518 6.76342 202.899 0.0548457 193.913C0.0548457 188.627 0.0548457 182.768 0.0548457 176.924C0.0411267 125.37 0.013719 73.8165 0 22.2774C0 20.3245 0.0685345 18.3716 0.109691 16.4187H0.095959Z" fill="#AA5637"/>
<path opacity="0.85" d="M125.539 210.977C108.942 212.189 98.1363 206.218 88.1853 195.489L99.0683 185.491C104.582 194.009 113.166 198.171 123.686 197.402C141.1 196.13 148.834 182.794 147.589 164.856C146.345 146.918 135.591 139.065 123.075 139.979L104.936 141.304L104.015 128.038L125.601 126.461C135.182 123.977 144.209 115.794 143.613 107.198C142.595 92.5302 134.478 87.2075 120.511 88.2279C110.262 88.9766 103.143 95.4126 99.0683 105.007L86.3643 99.2676C92.0192 84.8632 99.0703 75.1568 115.486 73.9575C136.799 72.4003 156.795 83.0416 158.364 105.651C158.921 113.686 151.352 125.8 138.979 131.399C154.306 132.909 162.042 148.494 163.111 163.91C164.998 191.098 149.211 209.247 125.539 210.977Z" fill="black"/>
</svg>
