<svg width="1440" height="59" viewBox="0 0 1440 59" fill="none" xmlns="http://www.w3.org/2000/svg">
<path d="M665.429 16.6045C659.092 16.7629 654 22.3807 654 29.2871C654 36.1936 659.092 41.8103 665.429 41.9688V58.8184H943.038V41.9609C942.873 41.9685 942.706 41.9736 942.539 41.9736C936.075 41.9736 930.835 36.2933 930.835 29.2871C930.835 22.281 936.075 16.6016 942.539 16.6016C942.706 16.6016 942.873 16.6058 943.038 16.6133V0H665.429V16.6045Z" fill="#E273B6"/>
<path d="M873.038 53L937.038 53L937.038 44.0448L909.092 44.0448L909.092 13.9104L937.038 13.9104L937.038 5L873.038 5L873.038 13.9104L901.03 13.9104L901.03 44.0448L873.038 44.0448L873.038 53Z" fill="#ECE2D9"/>
<path d="M806.038 53L870.038 53L870.038 44.0448L842.092 44.0448L842.092 13.9104L870.038 13.9104L870.038 5L806.038 5L806.038 13.9104L834.03 13.9104L834.03 44.0448L806.038 44.0448L806.038 53Z" fill="#ECE2D9"/>
<path d="M739.038 53L803.038 53L803.038 44.0448L775.092 44.0448L775.092 13.9104L803.038 13.9104L803.038 5L739.038 5L739.038 13.9104L767.03 13.9104L767.03 44.0448L739.038 44.0448L739.038 53Z" fill="#ECE2D9"/>
<path d="M672.038 53L736.038 53L736.038 44.0448L708.092 44.0448L708.092 13.9104L736.038 13.9104L736.038 5L672.038 5L672.038 13.9104L700.03 13.9104L700.03 44.0448L672.038 44.0448L672.038 53Z" fill="#ECE2D9"/>
<path d="M948.429 16.6045C942.092 16.7629 937 22.3807 937 29.2871C937 36.1936 942.092 41.8103 948.429 41.9688V58.8184H1226.04V41.9609C1225.87 41.9685 1225.71 41.9736 1225.54 41.9736C1219.08 41.9736 1213.83 36.2933 1213.83 29.2871C1213.84 22.281 1219.08 16.6016 1225.54 16.6016C1225.71 16.6016 1225.87 16.6058 1226.04 16.6133V0H948.429V16.6045Z" fill="#E273B6"/>
<path d="M1156.04 53L1220.04 53L1220.04 44.0448L1192.09 44.0448L1192.09 13.9104L1220.04 13.9104L1220.04 5L1156.04 5L1156.04 13.9104L1184.03 13.9104L1184.03 44.0448L1156.04 44.0448L1156.04 53Z" fill="#ECE2D9"/>
<path d="M1089.04 53L1153.04 53L1153.04 44.0448L1125.09 44.0448L1125.09 13.9104L1153.04 13.9104L1153.04 5L1089.04 5L1089.04 13.9104L1117.03 13.9104L1117.03 44.0448L1089.04 44.0448L1089.04 53Z" fill="#ECE2D9"/>
<path d="M1022.04 53L1086.04 53L1086.04 44.0448L1058.09 44.0448L1058.09 13.9104L1086.04 13.9104L1086.04 5L1022.04 5L1022.04 13.9104L1050.03 13.9104L1050.03 44.0448L1022.04 44.0448L1022.04 53Z" fill="#ECE2D9"/>
<path d="M955.038 53L1019.04 53L1019.04 44.0448L991.092 44.0448L991.092 13.9104L1019.04 13.9104L1019.04 5L955.038 5L955.038 13.9104L983.03 13.9104L983.03 44.0448L955.038 44.0448L955.038 53Z" fill="#ECE2D9"/>
<path d="M1234.43 16.6045C1228.09 16.7629 1223 22.3807 1223 29.2871C1223 36.1936 1228.09 41.8103 1234.43 41.9688V58.8184H1512.04V41.9609C1511.87 41.9685 1511.71 41.9736 1511.54 41.9736C1505.08 41.9736 1499.83 36.2933 1499.83 29.2871C1499.84 22.281 1505.08 16.6016 1511.54 16.6016C1511.71 16.6016 1511.87 16.6058 1512.04 16.6133V0H1234.43V16.6045Z" fill="#E273B6"/>
<path d="M1375.04 53L1439.04 53L1439.04 44.0448L1411.09 44.0448L1411.09 13.9104L1439.04 13.9104L1439.04 5L1375.04 5L1375.04 13.9104L1403.03 13.9104L1403.03 44.0448L1375.04 44.0448L1375.04 53Z" fill="#ECE2D9"/>
<path d="M1308.04 53L1372.04 53L1372.04 44.0448L1344.09 44.0448L1344.09 13.9104L1372.04 13.9104L1372.04 5L1308.04 5L1308.04 13.9104L1336.03 13.9104L1336.03 44.0448L1308.04 44.0448L1308.04 53Z" fill="#ECE2D9"/>
<path d="M1241.04 53L1305.04 53L1305.04 44.0448L1277.09 44.0448L1277.09 13.9104L1305.04 13.9104L1305.04 5L1241.04 5L1241.04 13.9104L1269.03 13.9104L1269.03 44.0448L1241.04 44.0448L1241.04 53Z" fill="#ECE2D9"/>
<path d="M-5.57129 16.6045C-11.9078 16.7629 -16.9999 22.3807 -17 29.2871C-17 36.1936 -11.9079 41.8103 -5.57129 41.9688V58.8184H272.038V41.9609C271.873 41.9685 271.706 41.9736 271.539 41.9736C265.075 41.9736 259.835 36.2933 259.835 29.2871C259.835 22.281 265.075 16.6016 271.539 16.6016C271.706 16.6016 271.873 16.6058 272.038 16.6133V0H-5.57129V16.6045Z" fill="#E273B6"/>
<path d="M202.038 53L266.038 53L266.038 44.0448L238.092 44.0448L238.092 13.9104L266.038 13.9104L266.038 5L202.038 5L202.038 13.9104L230.03 13.9104L230.03 44.0448L202.038 44.0448L202.038 53Z" fill="#ECE2D9"/>
<path d="M135 53L199 53L199 44.0448L171.054 44.0448L171.054 13.9104L199 13.9104L199 5L135 5L135 13.9104L162.992 13.9104L162.992 44.0448L135 44.0448L135 53Z" fill="#ECE2D9"/>
<path d="M68.0381 53L132.038 53L132.038 44.0448L104.092 44.0448L104.092 13.9104L132.038 13.9104L132.038 5L68.0381 5L68.0381 13.9104L96.0296 13.9104L96.0296 44.0448L68.0381 44.0448L68.0381 53Z" fill="#ECE2D9"/>
<path d="M1.03809 53L65.0381 53L65.0381 44.0448L37.0919 44.0448L37.0919 13.9104L65.0381 13.9104L65.0381 5L1.03809 5L1.03809 13.9104L29.0296 13.9104L29.0296 44.0448L1.03809 44.0448L1.03809 53Z" fill="#ECE2D9"/>
</svg>
