<svg width="466" height="466" viewBox="0 0 466 466" fill="none" xmlns="http://www.w3.org/2000/svg">
<path d="M3.08191 91.9046C1.37982 83.2007 7.05586 74.765 15.7597 73.063L373.616 3.08192C382.32 1.37982 390.755 7.05587 392.458 15.7597L462.439 373.616C464.141 382.32 458.465 390.755 449.761 392.458L91.9046 462.439C83.2007 464.141 74.765 458.465 73.0629 449.761L3.08191 91.9046Z" fill="#3F8B70"/>
<path d="M325.172 135.915L242.156 152.149L242.273 208.579L316.562 194.052L316.541 209.389L242.252 223.917L242.266 283.387L325.281 267.153L325.261 282.49L225.91 301.919L225.803 253.85L167.401 265.271L150.95 316.578L133.273 320.035L191.16 146.788L325.193 120.577L325.172 135.915ZM225.814 240.838L225.827 154.18L201.437 158.95L171.887 251.384L225.814 240.838Z" fill="#252525"/>
</svg>
