<svg width="447" height="433" viewBox="0 0 447 433" fill="none" xmlns="http://www.w3.org/2000/svg">
<path opacity="0.85" d="M124.691 282.435C112.265 303.958 84.7433 311.332 63.2202 298.906C41.697 286.479 34.3226 258.958 46.749 237.435C59.1754 215.911 86.697 208.537 108.22 220.963C129.743 233.39 137.118 260.911 124.691 282.435Z" fill="#1645BC"/>
<path d="M284.906 374.935C272.48 396.458 244.958 403.832 223.435 391.406C201.912 378.979 194.537 351.458 206.964 329.935C219.39 308.411 246.912 301.037 268.435 313.463C289.958 325.89 297.333 353.411 284.906 374.935Z" fill="#1645BC"/>
<rect opacity="0.85" x="88.4258" y="109.248" width="341" height="77" rx="10" transform="rotate(30 88.4258 109.248)" fill="#DB5C3D"/>
<rect x="324.705" y="100" width="115.971" height="115.971" rx="10" transform="rotate(30 324.705 100)" fill="#3F8B70"/>
</svg>
