<svg width="265" height="238" viewBox="0 0 265 238" fill="none" xmlns="http://www.w3.org/2000/svg">
<path d="M64 170L2.07494e-05 170L2.11409e-05 161.045L27.9462 161.045L27.9462 130.91L2.24581e-05 130.91L2.28476e-05 122L64 122L64 130.91L36.0085 130.91L36.0085 161.045L64 161.045L64 170Z" fill="#ECE2D9"/>
<path d="M131 170L67 170L67 161.045L94.9462 161.045L94.9462 130.91L67 130.91L67 122L131 122L131 130.91L103.009 130.91L103.009 161.045L131 161.045L131 170Z" fill="#ECE2D9"/>
<path d="M198 170L134 170L134 161.045L161.946 161.045L161.946 130.91L134 130.91L134 122L198 122L198 130.91L170.009 130.91L170.009 161.045L198 161.045L198 170Z" fill="#ECE2D9"/>
<path d="M265 170L201 170L201 161.045L228.946 161.045L228.946 130.91L201 130.91L201 122L265 122L265 130.91L237.009 130.91L237.009 161.045L265 161.045L265 170Z" fill="#ECE2D9"/>
<path d="M72.2806 9.54838C73.9216 4.27498 79.5269 1.33035 84.8003 2.9714L247.53 53.6116C252.803 55.2526 255.748 60.8579 254.107 66.1313L203.797 227.797C202.156 233.071 196.551 236.015 191.278 234.374L28.5483 183.734C23.2749 182.093 20.3303 176.488 21.9713 171.215L72.2806 9.54838Z" fill="#E2815B"/>
<path d="M185.438 107.527L173.386 107.316C175.176 112.502 174.928 118.552 172.726 125.627C171.412 129.847 169.487 134.286 166.871 139.19C154.266 162.633 131.974 178.705 108.389 171.366C94.1145 166.924 88.7501 155.724 92.7287 142.939C99.5659 120.968 124.823 107.18 146.298 113.863C156.6 117.069 161.844 124.283 162 132.092C163.664 128.934 165.002 125.947 165.852 123.216C167.822 116.885 167.552 111.627 165.53 107.186L141.962 106.795L143.289 101.218L161.592 101.468C156.972 96.6261 149.902 92.6561 140.901 88.766L143.958 83.3182C156.862 89.1037 165.733 94.7234 170.518 101.659L186.804 101.825L185.438 107.527ZM150.985 148.678C152.425 146.676 153.848 143.851 154.659 141.244C157.17 133.176 155.392 124.453 144.468 121.054C125.353 115.106 105.965 128.405 100.866 144.79C97.969 154.1 102.639 161.408 111.824 164.266C127.713 169.21 142.785 160.15 150.985 148.678Z" fill="#252525"/>
</svg>
