<svg width="740" height="460" viewBox="0 0 740 460" fill="none" xmlns="http://www.w3.org/2000/svg">
<rect opacity="0.85" x="38" y="254.999" width="254" height="86.4583" rx="10" transform="rotate(-89.8389 38 254.999)" fill="#FBC95C" fill-opacity="0.85"/>
<g clip-path="url(#clip0_231_146)">
<rect x="570" y="78.9999" width="170" height="171" rx="10" fill="#228F64" fill-opacity="0.85"/>
<path d="M618.08 246V225.77L655.48 182.42L619.61 143.66V124.62H706.82V145.7H666.87C664.603 145.7 662.053 145.643 659.22 145.53C656.5 145.417 653.553 145.19 650.38 144.85L680.81 178.51V184.97L645.28 225.77C649.247 225.43 652.873 225.203 656.16 225.09C659.56 224.863 663.187 224.75 667.04 224.75H708.35V246H618.08Z" fill="#252525"/>
</g>
<g clip-path="url(#clip1_231_146)">
<path d="M306 88.9999C306 83.4771 310.477 78.9999 316 78.9999H467C472.523 78.9999 477 83.4771 477 88.9999V240C477 245.523 472.523 250 467 250H316C310.477 250 306 245.523 306 240V88.9999Z" fill="#FBC95C" fill-opacity="0.85"/>
<path d="M390.77 166.48C390.77 183.25 429.38 179.35 429.38 202.75C429.38 204.05 429.25 205.87 428.86 207.82C426.13 221.73 413.39 231.35 398.7 232.78L395.97 246.82L387.65 246.95L390.38 232.65C376.99 230.96 367.37 221.99 367.89 207.56L377.25 205.87C376.6 218.35 384.4 224.59 395.97 224.59C408.19 224.59 417.81 217.05 419.63 207.3C419.89 205.87 420.02 205.22 420.02 204.05C420.02 185.85 381.54 189.75 381.54 167.39C381.54 165.83 381.67 164.4 381.93 162.97C384.4 150.36 395.32 142.04 407.93 140.61L410.53 126.96H418.85L416.25 140.61C425.09 141.78 431.59 146.59 434.97 155.3L426.52 159.59C423.92 152.05 418.46 148.67 410.53 148.67C401.04 148.67 392.72 155.17 391.03 164.01C390.9 164.79 390.77 165.7 390.77 166.48ZM390.77 335.48C390.77 352.25 429.38 348.35 429.38 371.75C429.38 373.05 429.25 374.87 428.86 376.82C426.13 390.73 413.39 400.35 398.7 401.78L395.97 415.82L387.65 415.95L390.38 401.65C376.99 399.96 367.37 390.99 367.89 376.56L377.25 374.87C376.6 387.35 384.4 393.59 395.97 393.59C408.19 393.59 417.81 386.05 419.63 376.3C419.89 374.87 420.02 374.22 420.02 373.05C420.02 354.85 381.54 358.75 381.54 336.39C381.54 334.83 381.67 333.4 381.93 331.97C384.4 319.36 395.32 311.04 407.93 309.61L410.53 295.96H418.85L416.25 309.61C425.09 310.78 431.59 315.59 434.97 324.3L426.52 328.59C423.92 321.05 418.46 317.67 410.53 317.67C401.04 317.67 392.72 324.17 391.03 333.01C390.9 333.79 390.77 334.7 390.77 335.48Z" fill="#252525"/>
</g>
<rect x="537" y="257" width="203" height="203" rx="10" fill="#1645BC"/>
<path d="M633.53 426.89C624.01 426.89 615.963 424.68 609.39 420.26C602.817 415.84 597.83 410.06 594.43 402.92C591.143 395.78 589.5 388.13 589.5 379.97C589.5 371.81 590.803 364.783 593.41 358.89C596.017 352.997 599.417 348.123 603.61 344.27C607.917 340.417 612.677 337.583 617.89 335.77C623.103 333.957 628.317 333.05 633.53 333.05C641.917 333.05 649.397 334.977 655.97 338.83C662.657 342.57 667.927 347.953 671.78 354.98C675.633 362.007 677.56 370.337 677.56 379.97H608.88V409.55C611.373 412.157 614.83 414.537 619.25 416.69C623.67 418.73 628.43 419.75 633.53 419.75C641.803 419.75 648.377 418.05 653.25 414.65C658.123 411.25 662.487 406.49 666.34 400.37L672.29 403.77C669.683 407.963 666.68 411.817 663.28 415.33C659.993 418.843 655.97 421.677 651.21 423.83C646.45 425.87 640.557 426.89 633.53 426.89ZM658.35 349.88C656.197 347.613 652.967 345.403 648.66 343.25C644.353 341.097 639.253 340.02 633.36 340.02C627.807 340.02 622.99 340.983 618.91 342.91C614.83 344.837 611.487 347.103 608.88 349.71V372.83H658.35V349.88Z" fill="#252525"/>
<g clip-path="url(#clip2_231_146)">
<path d="M132 89.9999C132 84.4771 136.477 79.9999 142 79.9999H292C297.523 79.9999 302 84.4771 302 89.9999V241C302 246.523 297.523 251 292 251H142C136.477 251 132 246.523 132 241V89.9999Z" fill="#228F64" fill-opacity="0.85"/>
<path d="M211.57 176.84L217.29 147.72H207.28L208.32 142.39H234.06L232.89 147.72H223.14L217.42 176.84H211.57ZM234.84 176.84L241.6 142.39H250.96L254.47 166.18L267.21 142.39H276.57L269.81 176.84H263.96L269.55 148.63L254.86 174.63H251.09L246.28 148.37L240.69 176.84H234.84Z" fill="#252525"/>
</g>
<g clip-path="url(#clip3_231_146)">
<path d="M81.9346 241.494C64.5859 241.494 50.4746 233.027 45.1621 215.679L59.7715 216.177C65.25 216.509 71.2266 224.727 81.9346 224.727C91.0654 224.727 98.7021 222.651 98.7021 214.185C98.7021 200.239 49.0635 212.939 49.0635 179.155C49.0635 172.847 51.9688 166.87 56.2021 162.471C51.4707 158.237 49.2295 152.759 49.2295 146.865C49.2295 129.849 65.416 120.967 80.8555 120.967C96.5439 120.967 115.221 136.157 107.418 140.059L98.5361 144.624C94.6348 144.624 89.4053 137.817 80.6895 137.817C72.7207 137.817 66.0801 141.221 66.0801 148.525C66.0801 161.475 115.719 148.857 115.719 183.389C115.719 189.531 113.395 195.425 109.078 199.907C113.727 204.141 115.719 209.702 115.719 215.513C115.719 234.355 97.8721 241.494 81.9346 241.494ZM91.7295 192.602C96.876 190.693 98.7021 187.622 98.7021 182.227C98.7021 172.847 83.4287 171.186 72.8867 168.779C68.4873 170.771 66.0801 174.756 66.0801 179.487C66.0801 187.788 81.6025 190.195 91.7295 192.602Z" fill="#252525"/>
</g>
<path opacity="0.85" d="M389.418 460L508 460C513.523 460 518 455.523 518 450L518 266C518 260.477 513.523 256 508 256L48 256C42.4772 256 38 260.477 38 266L38 450C38 455.523 42.4772 460 48 460L165.993 460C171.408 460 175.805 455.692 176.574 450.332C181.865 413.427 211.472 357.19 277.596 357.19C349.712 357.19 374.291 415.206 378.926 450.372C379.631 455.72 384.023 460 389.418 460Z" fill="#DA5728" fill-opacity="0.85"/>
<rect x="563" width="254" height="82" rx="10" transform="rotate(90 563 0)" fill="#252525"/>
<rect opacity="0.85" x="136" width="341" height="77" rx="10" fill="#DA5728" fill-opacity="0.85"/>
<g clip-path="url(#clip4_231_146)">
<path d="M78.34 419.89L96.53 365.83L52.67 336.42H106.39L125.6 278.45L145.15 336.42H198.53L154.67 365.83L173.2 419.89L125.6 385.38L78.34 419.89Z" fill="#252525"/>
</g>
<g clip-path="url(#clip5_231_146)">
<path d="M387.34 423.89L405.53 369.83L361.67 340.42H415.39L434.6 282.45L454.15 340.42H507.53L463.67 369.83L482.2 423.89L434.6 389.38L387.34 423.89Z" fill="#252525"/>
</g>
<defs>
<clipPath id="clip0_231_146">
<rect x="570" y="78.9999" width="170" height="171" rx="10" fill="white"/>
</clipPath>
<clipPath id="clip1_231_146">
<path d="M306 88.9999C306 83.4771 310.477 78.9999 316 78.9999H467C472.523 78.9999 477 83.4771 477 88.9999V240C477 245.523 472.523 250 467 250H316C310.477 250 306 245.523 306 240V88.9999Z" fill="white"/>
</clipPath>
<clipPath id="clip2_231_146">
<path d="M132 89.9999C132 84.4771 136.477 79.9999 142 79.9999H292C297.523 79.9999 302 84.4771 302 89.9999V241C302 246.523 297.523 251 292 251H142C136.477 251 132 246.523 132 241V89.9999Z" fill="white"/>
</clipPath>
<clipPath id="clip3_231_146">
<rect y="72.9999" width="171" height="171" rx="10" fill="white"/>
</clipPath>
<clipPath id="clip4_231_146">
<rect y="250" width="208" height="178" rx="10" fill="white"/>
</clipPath>
<clipPath id="clip5_231_146">
<rect x="309" y="254" width="208" height="178" rx="10" fill="white"/>
</clipPath>
</defs>
</svg>
