<svg width="211" height="211" viewBox="0 0 211 211" fill="none" xmlns="http://www.w3.org/2000/svg">
<rect x="21.9932" width="190.282" height="190.282" rx="10" transform="rotate(6.63715 21.9932 0)" fill="#DA5728" fill-opacity="0.85"/>
<path d="M56.2276 193.846L73.6561 44.0666L123.47 49.863C130.9 50.7276 137.222 52.7754 142.437 56.0064C147.764 59.2506 151.588 64.1453 153.907 70.6905C156.351 77.1363 156.945 85.7627 155.687 96.5698C154.495 106.814 152.082 114.805 148.448 120.544C144.926 126.295 140.426 130.164 134.946 132.151C129.466 134.138 123.237 134.725 116.257 133.913C113.893 133.638 111.711 133.27 109.711 132.809C107.836 132.248 106.081 131.645 104.445 130.998L96.5853 198.542L83.2453 196.99L98.7482 63.7588L85.0705 62.1672L69.5676 195.398L56.2276 193.846Z" fill="#252525"/>
</svg>
