<svg width="320" height="328" viewBox="0 0 320 328" fill="none" xmlns="http://www.w3.org/2000/svg">
<path d="M316.209 52.6938L319.125 52.0627V260.69C317.527 261.537 315.841 262.673 313.996 263.394C277.301 277.562 240.589 291.694 203.876 305.808C185.942 312.711 167.989 319.597 150.037 326.465C148.72 326.97 147.262 327.06 145.874 327.348C145.874 252.957 145.874 178.566 145.874 104.174C162.966 98.965 180.039 93.6836 197.184 88.5824C212.624 83.9859 228.152 79.7138 243.593 75.0993C265.128 68.6462 286.611 62.0669 308.094 55.3794C309.816 54.8386 312.046 54.7307 313.574 53.5951L316.209 52.6938Z" fill="#B44F7D"/>
<path d="M145.873 104.174C145.873 178.565 145.873 252.956 145.873 327.348C141.482 325.221 137.038 323.184 132.699 320.949C94.9853 301.589 57.3066 282.212 19.6104 262.816C13.1462 259.5 6.69952 256.165 0.0420802 252.722C0.0420802 250.289 0.0420802 248.216 0.0420802 246.143C0.0420802 179.286 0.0420438 112.412 0.0596096 45.5552C0.0596096 44.059 -0.0462475 41.572 0.0240158 40.0759C0.603687 39.6433 1.4122 40.1836 2.00944 39.7509C3.02826 39.6788 4.04708 39.6067 5.08346 39.5346C6.36576 40.9406 7.38462 42.9054 8.96554 43.6805C17.2917 47.7362 25.7057 51.5937 34.1548 55.343C47.8737 61.4176 61.6453 67.384 75.4169 73.3685C90.7167 80.0379 106.017 86.6893 121.316 93.3588C129.52 96.9458 137.705 100.551 145.891 104.156L145.873 104.174Z" fill="#E15EAF"/>
<path d="M145.873 104.174C137.688 100.569 129.502 96.9642 121.299 93.3771C105.999 86.7077 90.6989 80.0563 75.3991 73.3868C61.6451 67.3844 47.8735 61.4359 34.137 55.3614C25.6879 51.6121 17.2564 47.7546 8.94773 43.6989C7.36681 42.9238 2.18465 41.4999 0.902344 40.0759C15.3941 36.3627 34.0317 32.0003 48.5586 28.4313C67.5472 23.7627 86.6061 19.3464 105.612 14.7499C125.725 9.88303 145.82 4.87194 165.968 0.113211C167.707 -0.301375 169.868 0.509772 171.695 1.14066C197.077 9.88303 222.425 18.7335 247.79 27.512C267.71 34.3977 287.682 41.1933 307.566 48.2052C309.481 48.8902 317.14 50.4586 318.843 51.7925C317.298 52.9281 309.78 54.8747 308.076 55.4154C286.61 62.0849 265.11 68.6822 243.574 75.1353C228.134 79.7498 212.606 84.0219 197.165 88.6184C180.039 93.7196 162.965 99.0011 145.856 104.21L145.873 104.174Z" fill="#ECADCB"/>
</svg>
