<svg width="274" height="59" viewBox="0 0 274 59" fill="none" xmlns="http://www.w3.org/2000/svg">
<path d="M262.517 42.2139C268.853 42.0555 273.945 36.4377 273.945 29.5313C273.945 22.6248 268.853 17.0081 262.517 16.8497L262.517 4.95379e-05L-15.0928 2.52685e-05L-15.0928 16.8574C-14.9273 16.8499 -14.7609 16.8448 -14.5937 16.8448C-8.13004 16.8448 -2.88965 22.5251 -2.88965 29.5313C-2.88976 36.5374 -8.13011 42.2168 -14.5937 42.2168C-14.7609 42.2168 -14.9273 42.2126 -15.0928 42.2051L-15.0928 58.8184L262.517 58.8184L262.517 42.2139Z" fill="#E273B6"/>
<path d="M54.9072 5.81839L-9.09277 5.81838L-9.09277 14.7736L18.8534 14.7736L18.8534 44.9079L-9.09278 44.9079L-9.09278 53.8184L54.9072 53.8184L54.9072 44.9079L26.9157 44.9079L26.9157 14.7736L54.9072 14.7736L54.9072 5.81839Z" fill="#ECE2D9"/>
<path d="M121.907 5.81839L57.9072 5.81838L57.9072 14.7736L85.8534 14.7736L85.8534 44.9079L57.9072 44.9079L57.9072 53.8184L121.907 53.8184L121.907 44.9079L93.9157 44.9079L93.9157 14.7736L121.907 14.7736L121.907 5.81839Z" fill="#ECE2D9"/>
<path d="M188.907 5.81839L124.907 5.81838L124.907 14.7736L152.853 14.7736L152.853 44.9079L124.907 44.9079L124.907 53.8184L188.907 53.8184L188.907 44.9079L160.916 44.9079L160.916 14.7736L188.907 14.7736L188.907 5.81839Z" fill="#ECE2D9"/>
<path d="M255.907 5.81839L191.907 5.81838L191.907 14.7736L219.853 14.7736L219.853 44.9079L191.907 44.9079L191.907 53.8184L255.907 53.8184L255.907 44.9079L227.916 44.9079L227.916 14.7736L255.907 14.7736L255.907 5.81839Z" fill="#ECE2D9"/>
</svg>
