<svg width="1440" height="60" viewBox="0 0 1440 60" fill="none" xmlns="http://www.w3.org/2000/svg">
<path d="M1046.52 16.6045C1052.85 16.763 1057.95 22.3807 1057.95 29.2871C1057.95 36.1937 1052.85 41.8103 1046.52 41.9688L1046.52 58.8184L768.907 58.8184L768.907 41.9609C769.073 41.9685 769.239 41.9736 769.406 41.9736C775.87 41.9736 781.11 36.2933 781.11 29.2871C781.11 22.281 775.87 16.6016 769.406 16.6016C769.239 16.6016 769.073 16.6058 768.907 16.6133L768.907 0L1046.52 2.42694e-05L1046.52 16.6045Z" fill="#E273B6"/>
<path d="M240.517 17.6046C246.853 17.7631 251.945 23.3808 251.945 30.2873C251.945 37.1938 246.853 42.8104 240.517 42.9689L240.517 59.8185L-37.0928 59.8185L-37.0928 42.9611C-36.9273 42.9686 -36.7609 42.9737 -36.5938 42.9738C-30.1301 42.9738 -24.8897 37.2935 -24.8897 30.2872C-24.8898 23.2811 -30.1301 17.6017 -36.5938 17.6017C-36.7609 17.6017 -36.9273 17.6059 -37.0928 17.6134L-37.0928 1.00012L240.517 1.00015L240.517 17.6046Z" fill="#E273B6"/>
<path d="M32.9072 54.0001L-31.0928 54.0001L-31.0928 45.0449L-3.14656 45.0449L-3.14656 14.9106L-31.0928 14.9106L-31.0928 6.00013L32.9072 6.00013L32.9072 14.9106L4.91572 14.9106L4.91572 45.0449L32.9072 45.0449L32.9072 54.0001Z" fill="#ECE2D9"/>
<path d="M99.9072 54.0001L35.9072 54.0001L35.9072 45.0449L63.8534 45.0449L63.8534 14.9106L35.9072 14.9106L35.9072 6.00013L99.9072 6.00013L99.9072 14.9106L71.9157 14.9106L71.9157 45.0449L99.9072 45.0449L99.9072 54.0001Z" fill="#ECE2D9"/>
<path d="M166.907 54.0001L102.907 54.0001L102.907 45.0449L130.853 45.0449L130.853 14.9106L102.907 14.9106L102.907 6.00013L166.907 6.00013L166.907 14.9106L138.916 14.9106L138.916 45.0449L166.907 45.0449L166.907 54.0001Z" fill="#ECE2D9"/>
<path d="M233.907 54.0001L169.907 54.0001L169.907 45.0449L197.853 45.0449L197.853 14.9106L169.907 14.9106L169.907 6.00013L233.907 6.00013L233.907 14.9106L205.916 14.9106L205.916 45.0449L233.907 45.0449L233.907 54.0001Z" fill="#ECE2D9"/>
<path d="M1351.52 17.6046C1357.85 17.7631 1362.95 23.3808 1362.95 30.2873C1362.95 37.1938 1357.85 42.8104 1351.52 42.9689L1351.52 59.8185L1073.91 59.8185L1073.91 42.9611C1074.07 42.9686 1074.24 42.9737 1074.41 42.9738C1080.87 42.9738 1086.11 37.2935 1086.11 30.2872C1086.11 23.2811 1080.87 17.6017 1074.41 17.6017C1074.24 17.6017 1074.07 17.6059 1073.91 17.6134L1073.91 1.00012L1351.52 1.00015L1351.52 17.6046Z" fill="#E273B6"/>
<path d="M1143.91 54.0001L1079.91 54.0001L1079.91 45.0449L1107.85 45.0449L1107.85 14.9106L1079.91 14.9106L1079.91 6.00013L1143.91 6.00013L1143.91 14.9106L1115.92 14.9106L1115.92 45.0449L1143.91 45.0449L1143.91 54.0001Z" fill="#ECE2D9"/>
<path d="M1210.91 54.0001L1146.91 54.0001L1146.91 45.0449L1174.85 45.0449L1174.85 14.9106L1146.91 14.9106L1146.91 6.00013L1210.91 6.00013L1210.91 14.9106L1182.92 14.9106L1182.92 45.0449L1210.91 45.0449L1210.91 54.0001Z" fill="#ECE2D9"/>
<path d="M1277.91 54.0001L1213.91 54.0001L1213.91 45.0449L1241.85 45.0449L1241.85 14.9106L1213.91 14.9106L1213.91 6.00013L1277.91 6.00013L1277.91 14.9106L1249.92 14.9106L1249.92 45.0449L1277.91 45.0449L1277.91 54.0001Z" fill="#ECE2D9"/>
<path d="M1344.91 54.0001L1280.91 54.0001L1280.91 45.0449L1308.85 45.0449L1308.85 14.9106L1280.91 14.9106L1280.91 6.00013L1344.91 6.00013L1344.91 14.9106L1316.92 14.9106L1316.92 45.0449L1344.91 45.0449L1344.91 54.0001Z" fill="#ECE2D9"/>
<path d="M1640.52 17.6046C1646.85 17.7631 1651.95 23.3808 1651.95 30.2873C1651.95 37.1938 1646.85 42.8104 1640.52 42.9689L1640.52 59.8185L1362.91 59.8185L1362.91 42.9611C1363.07 42.9686 1363.24 42.9737 1363.41 42.9738C1369.87 42.9738 1375.11 37.2935 1375.11 30.2872C1375.11 23.2811 1369.87 17.6017 1363.41 17.6017C1363.24 17.6017 1363.07 17.6059 1362.91 17.6134L1362.91 1.00012L1640.52 1.00015L1640.52 17.6046Z" fill="#E273B6"/>
<path d="M1432.91 54.0001L1368.91 54.0001L1368.91 45.0449L1396.85 45.0449L1396.85 14.9106L1368.91 14.9106L1368.91 6.00013L1432.91 6.00013L1432.91 14.9106L1404.92 14.9106L1404.92 45.0449L1432.91 45.0449L1432.91 54.0001Z" fill="#ECE2D9"/>
<path d="M1499.91 54.0001L1435.91 54.0001L1435.91 45.0449L1463.85 45.0449L1463.85 14.9106L1435.91 14.9106L1435.91 6.00013L1499.91 6.00013L1499.91 14.9106L1471.92 14.9106L1471.92 45.0449L1499.91 45.0449L1499.91 54.0001Z" fill="#ECE2D9"/>
<path d="M855.517 16.6046C861.853 16.7631 866.945 22.3808 866.945 29.2873C866.945 36.1938 861.853 41.8104 855.517 41.9689L855.517 58.8185L577.907 58.8185L577.907 41.9611C578.073 41.9686 578.239 41.9737 578.406 41.9738C584.87 41.9738 590.11 36.2935 590.11 29.2872C590.11 22.2811 584.87 16.6017 578.406 16.6017C578.239 16.6017 578.073 16.6059 577.907 16.6134L577.907 0.00012207L855.517 0.00014634L855.517 16.6046Z" fill="#E273B6"/>
<path d="M647.907 53.0001L583.907 53.0001L583.907 44.0449L611.853 44.0449L611.853 13.9106L583.907 13.9106L583.907 5.00013L647.907 5.00013L647.907 13.9106L619.916 13.9106L619.916 44.0449L647.907 44.0449L647.907 53.0001Z" fill="#ECE2D9"/>
<path d="M714.907 53.0001L650.907 53.0001L650.907 44.0449L678.853 44.0449L678.853 13.9106L650.907 13.9106L650.907 5.00013L714.907 5.00013L714.907 13.9106L686.916 13.9106L686.916 44.0449L714.907 44.0449L714.907 53.0001Z" fill="#ECE2D9"/>
<path d="M781.907 53.0001L717.907 53.0001L717.907 44.0449L745.853 44.0449L745.853 13.9106L717.907 13.9106L717.907 5.00013L781.907 5.00013L781.907 13.9106L753.916 13.9106L753.916 44.0449L781.907 44.0449L781.907 53.0001Z" fill="#ECE2D9"/>
<path d="M848.907 53.0001L784.907 53.0001L784.907 44.0449L812.853 44.0449L812.853 13.9106L784.907 13.9106L784.907 5.00013L848.907 5.00013L848.907 13.9106L820.916 13.9106L820.916 44.0449L848.907 44.0449L848.907 53.0001Z" fill="#ECE2D9"/>
</svg>
